<?xml version="1.0" encoding="UTF-8"?>
<!DOCTYPE svg
PUBLIC "-//W3C//DTD SVG 1.1//EN"
       "http://www.w3.org/Graphics/SVG/1.1/DTD/svg11.dtd">
<svg viewBox="18 32 1098 709" width="1080px" height="677px" xmlns="http://www.w3.org/2000/svg" version="1.1">
   <line x1="716" y1="494" x2="706" y2="494" style="stroke:#0bf;stroke-width:1;"/>
   <line x1="180" y1="252" x2="170" y2="252" style="stroke:#0bf;stroke-width:1;"/>
   <line x1="706" y1="494" x2="180" y2="252" style="stroke:#0bf;stroke-width:1;"/>
   <line x1="708,5" y1="494" x2="712,03553390593" y2="497,53553390593" style="stroke:#0bf;stroke-width:2;"/>
   <line x1="708,5" y1="494" x2="712,03553390593" y2="490,46446609407" style="stroke:#0bf;stroke-width:2;"/>
   <line x1="175" y1="252" x2="178,53553390593" y2="255,53553390593" style="stroke:#0bf;stroke-width:2;"/>
   <line x1="175" y1="252" x2="178,53553390593" y2="248,46446609407" style="stroke:#0bf;stroke-width:2;"/>
   <line x1="33" y1="372" x2="23" y2="372" style="stroke:#b0b;stroke-width:1;"/>
   <line x1="23" y1="252" x2="33" y2="252" style="stroke:#b0b;stroke-width:1;"/>
   <line x1="23" y1="372" x2="23" y2="252" style="stroke:#b0b;stroke-width:1;"/>
   <line x1="25,5" y1="372" x2="29,035533905933" y2="375,53553390593" style="stroke:#b0b;stroke-width:2;"/>
   <line x1="25,5" y1="372" x2="29,035533905933" y2="368,46446609407" style="stroke:#b0b;stroke-width:2;"/>
   <line x1="28" y1="252" x2="24,464466094067" y2="255,53553390593" style="stroke:#b0b;stroke-width:2;"/>
   <line x1="28" y1="252" x2="24,464466094067" y2="248,46446609407" style="stroke:#b0b;stroke-width:2;"/>
   <line x1="170" y1="352" x2="180" y2="352" style="stroke:#b0b;stroke-width:1;"/>
   <line x1="301" y1="524" x2="311" y2="524" style="stroke:#b0b;stroke-width:1;"/>
   <line x1="180" y1="352" x2="301" y2="524" style="stroke:#b0b;stroke-width:1;"/>
   <line x1="177,5" y1="352" x2="173,96446609407" y2="355,53553390593" style="stroke:#b0b;stroke-width:2;"/>
   <line x1="177,5" y1="352" x2="173,96446609407" y2="348,46446609407" style="stroke:#b0b;stroke-width:2;"/>
   <line x1="306" y1="524" x2="302,46446609407" y2="527,53553390593" style="stroke:#b0b;stroke-width:2;"/>
   <line x1="306" y1="524" x2="302,46446609407" y2="520,46446609407" style="stroke:#b0b;stroke-width:2;"/>
   <line x1="255" y1="101" x2="265" y2="101" style="stroke:#0bf;stroke-width:1;"/>
   <line x1="395" y1="333" x2="405" y2="333" style="stroke:#0bf;stroke-width:1;"/>
   <line x1="265" y1="101" x2="395" y2="333" style="stroke:#0bf;stroke-width:1;"/>
   <line x1="262,5" y1="101" x2="258,96446609407" y2="104,53553390593" style="stroke:#0bf;stroke-width:2;"/>
   <line x1="262,5" y1="101" x2="258,96446609407" y2="97,464466094067" style="stroke:#0bf;stroke-width:2;"/>
   <line x1="400" y1="333" x2="396,46446609407" y2="336,53553390593" style="stroke:#0bf;stroke-width:2;"/>
   <line x1="400" y1="333" x2="396,46446609407" y2="329,46446609407" style="stroke:#0bf;stroke-width:2;"/>
   <line x1="255" y1="121" x2="265" y2="121" style="stroke:#cb0;stroke-width:1;"/>
   <line x1="929" y1="150" x2="939" y2="150" style="stroke:#cb0;stroke-width:1;"/>
   <line x1="265" y1="121" x2="929" y2="150" style="stroke:#cb0;stroke-width:1;"/>
   <line x1="262,5" y1="121" x2="258,96446609407" y2="124,53553390593" style="stroke:#cb0;stroke-width:2;"/>
   <line x1="262,5" y1="121" x2="258,96446609407" y2="117,46446609407" style="stroke:#cb0;stroke-width:2;"/>
   <line x1="934" y1="150" x2="930,46446609407" y2="153,53553390593" style="stroke:#cb0;stroke-width:2;"/>
   <line x1="934" y1="150" x2="930,46446609407" y2="146,46446609407" style="stroke:#cb0;stroke-width:2;"/>
   <line x1="538" y1="453" x2="548" y2="453" style="stroke:#cb0;stroke-width:1;"/>
   <line x1="706" y1="414" x2="716" y2="414" style="stroke:#cb0;stroke-width:1;"/>
   <line x1="548" y1="453" x2="706" y2="414" style="stroke:#cb0;stroke-width:1;"/>
   <line x1="545,5" y1="453" x2="541,96446609407" y2="456,53553390593" style="stroke:#cb0;stroke-width:2;"/>
   <line x1="545,5" y1="453" x2="541,96446609407" y2="449,46446609407" style="stroke:#cb0;stroke-width:2;"/>
   <line x1="711" y1="414" x2="707,46446609407" y2="417,53553390593" style="stroke:#cb0;stroke-width:2;"/>
   <line x1="711" y1="414" x2="707,46446609407" y2="410,46446609407" style="stroke:#cb0;stroke-width:2;"/>
   <line x1="555" y1="204" x2="565" y2="204" style="stroke:#0bf;stroke-width:1;"/>
   <line x1="706" y1="414" x2="716" y2="414" style="stroke:#0bf;stroke-width:1;"/>
   <line x1="565" y1="204" x2="706" y2="414" style="stroke:#0bf;stroke-width:1;"/>
   <line x1="562,5" y1="204" x2="558,96446609407" y2="207,53553390593" style="stroke:#0bf;stroke-width:2;"/>
   <line x1="562,5" y1="204" x2="558,96446609407" y2="200,46446609407" style="stroke:#0bf;stroke-width:2;"/>
   <line x1="711" y1="414" x2="707,46446609407" y2="417,53553390593" style="stroke:#0bf;stroke-width:2;"/>
   <line x1="711" y1="414" x2="707,46446609407" y2="410,46446609407" style="stroke:#0bf;stroke-width:2;"/>
   <line x1="939" y1="190" x2="929" y2="190" style="stroke:#bbb;stroke-width:1;"/>
   <line x1="763" y1="77" x2="753" y2="77" style="stroke:#bbb;stroke-width:1;"/>
   <line x1="929" y1="190" x2="763" y2="77" style="stroke:#bbb;stroke-width:1;"/>
   <line x1="931,5" y1="190" x2="935,03553390593" y2="193,53553390593" style="stroke:#bbb;stroke-width:2;"/>
   <line x1="931,5" y1="190" x2="935,03553390593" y2="186,46446609407" style="stroke:#bbb;stroke-width:2;"/>
   <line x1="758" y1="77" x2="761,53553390593" y2="80,535533905933" style="stroke:#bbb;stroke-width:2;"/>
   <line x1="758" y1="77" x2="761,53553390593" y2="73,464466094067" style="stroke:#bbb;stroke-width:2;"/>
   <rect width="206" height="20" x="716" y="384" style="fill:#007;stroke:black;"/>
   <text width="206" height="20" x="721" y="398" style="fill:#fff;" font-family="Arial" font-size="16px"> customers</text>
   <rect width="206" height="20" x="716" y="404" style="fill:#aea;stroke:black;"/>
   <text width="206" height="20" x="721" y="418" style="fill:black;" font-family="Arial" font-size="16px">customerNumber</text>
   <rect width="206" height="20" x="716" y="424" style="fill:none;stroke:black;"/>
   <text width="206" height="20" x="721" y="438" style="fill:black;" font-family="Arial" font-size="16px">customerName</text>
   <rect width="206" height="20" x="716" y="444" style="fill:none;stroke:black;"/>
   <text width="206" height="20" x="721" y="458" style="fill:black;" font-family="Arial" font-size="16px">addressLine1</text>
   <rect width="206" height="20" x="716" y="464" style="fill:none;stroke:black;"/>
   <text width="206" height="20" x="721" y="478" style="fill:black;" font-family="Arial" font-size="16px">addressLine2</text>
   <rect width="206" height="20" x="716" y="484" style="fill:none;stroke:black;"/>
   <text width="206" height="20" x="721" y="498" style="fill:black;" font-family="Arial" font-size="16px">salesRepEmployeeNumber</text>
   <rect width="206" height="20" x="716" y="504" style="fill:none;stroke:black;"/>
   <text width="206" height="20" x="721" y="518" style="fill:black;" font-family="Arial" font-size="16px">creditLimit</text>
   <rect width="206" height="20" x="716" y="524" style="fill:none;stroke:black;"/>
   <text width="206" height="20" x="721" y="538" style="fill:black;" font-family="Arial" font-size="16px">valuename</text>
   <rect width="137" height="20" x="33" y="222" style="fill:#007;stroke:black;"/>
   <text width="137" height="20" x="38" y="236" style="fill:#fff;" font-family="Arial" font-size="16px"> employees</text>
   <rect width="137" height="20" x="33" y="242" style="fill:#aea;stroke:black;"/>
   <text width="137" height="20" x="38" y="256" style="fill:black;" font-family="Arial" font-size="16px">employeeNumber</text>
   <rect width="137" height="20" x="33" y="262" style="fill:none;stroke:black;"/>
   <text width="137" height="20" x="38" y="276" style="fill:black;" font-family="Arial" font-size="16px">lastName</text>
   <rect width="137" height="20" x="33" y="282" style="fill:none;stroke:black;"/>
   <text width="137" height="20" x="38" y="296" style="fill:black;" font-family="Arial" font-size="16px">firstName</text>
   <rect width="137" height="20" x="33" y="302" style="fill:none;stroke:black;"/>
   <text width="137" height="20" x="38" y="316" style="fill:black;" font-family="Arial" font-size="16px">extension</text>
   <rect width="137" height="20" x="33" y="322" style="fill:none;stroke:black;"/>
   <text width="137" height="20" x="38" y="336" style="fill:black;" font-family="Arial" font-size="16px">email</text>
   <rect width="137" height="20" x="33" y="342" style="fill:none;stroke:black;"/>
   <text width="137" height="20" x="38" y="356" style="fill:black;" font-family="Arial" font-size="16px">officeCode</text>
   <rect width="137" height="20" x="33" y="362" style="fill:none;stroke:black;"/>
   <text width="137" height="20" x="38" y="376" style="fill:black;" font-family="Arial" font-size="16px">reportsTo</text>
   <rect width="137" height="20" x="33" y="382" style="fill:none;stroke:black;"/>
   <text width="137" height="20" x="38" y="396" style="fill:black;" font-family="Arial" font-size="16px">jobTitle</text>
   <rect width="106" height="20" x="311" y="494" style="fill:#007;stroke:black;"/>
   <text width="106" height="20" x="316" y="508" style="fill:#fff;" font-family="Arial" font-size="16px"> offices</text>
   <rect width="106" height="20" x="311" y="514" style="fill:none;stroke:black;"/>
   <text width="106" height="20" x="316" y="528" style="fill:black;" font-family="Arial" font-size="16px">officeCode</text>
   <rect width="106" height="20" x="311" y="534" style="fill:none;stroke:black;"/>
   <text width="106" height="20" x="316" y="548" style="fill:black;" font-family="Arial" font-size="16px">city</text>
   <rect width="106" height="20" x="311" y="554" style="fill:none;stroke:black;"/>
   <text width="106" height="20" x="316" y="568" style="fill:black;" font-family="Arial" font-size="16px">phone</text>
   <rect width="106" height="20" x="311" y="574" style="fill:none;stroke:black;"/>
   <text width="106" height="20" x="316" y="588" style="fill:black;" font-family="Arial" font-size="16px">addressLine1</text>
   <rect width="106" height="20" x="311" y="594" style="fill:none;stroke:black;"/>
   <text width="106" height="20" x="316" y="608" style="fill:black;" font-family="Arial" font-size="16px">addressLine2</text>
   <rect width="106" height="20" x="311" y="614" style="fill:none;stroke:black;"/>
   <text width="106" height="20" x="316" y="628" style="fill:black;" font-family="Arial" font-size="16px">state</text>
   <rect width="106" height="20" x="311" y="634" style="fill:none;stroke:black;"/>
   <text width="106" height="20" x="316" y="648" style="fill:black;" font-family="Arial" font-size="16px">country</text>
   <rect width="106" height="20" x="311" y="654" style="fill:none;stroke:black;"/>
   <text width="106" height="20" x="316" y="668" style="fill:black;" font-family="Arial" font-size="16px">postalCode</text>
   <rect width="106" height="20" x="311" y="674" style="fill:none;stroke:black;"/>
   <text width="106" height="20" x="316" y="688" style="fill:black;" font-family="Arial" font-size="16px">territory</text>
   <rect width="135" height="20" x="120" y="71" style="fill:#007;stroke:black;"/>
   <text width="135" height="20" x="125" y="85" style="fill:#fff;" font-family="Arial" font-size="16px"> orderdetails</text>
   <rect width="135" height="20" x="120" y="91" style="fill:#aea;stroke:black;"/>
   <text width="135" height="20" x="125" y="105" style="fill:black;" font-family="Arial" font-size="16px">orderNumber</text>
   <rect width="135" height="20" x="120" y="111" style="fill:none;stroke:black;"/>
   <text width="135" height="20" x="125" y="125" style="fill:black;" font-family="Arial" font-size="16px">productCode</text>
   <rect width="135" height="20" x="120" y="131" style="fill:none;stroke:black;"/>
   <text width="135" height="20" x="125" y="145" style="fill:black;" font-family="Arial" font-size="16px">quantityOrdered</text>
   <rect width="135" height="20" x="120" y="151" style="fill:none;stroke:black;"/>
   <text width="135" height="20" x="125" y="165" style="fill:black;" font-family="Arial" font-size="16px">priceEach</text>
   <rect width="135" height="20" x="120" y="171" style="fill:none;stroke:black;"/>
   <text width="135" height="20" x="125" y="185" style="fill:black;" font-family="Arial" font-size="16px">orderLineNumber</text>
   <rect width="133" height="20" x="405" y="303" style="fill:#007;stroke:black;"/>
   <text width="133" height="20" x="410" y="317" style="fill:#fff;" font-family="Arial" font-size="16px"> orders</text>
   <rect width="133" height="20" x="405" y="323" style="fill:#aea;stroke:black;"/>
   <text width="133" height="20" x="410" y="337" style="fill:black;" font-family="Arial" font-size="16px">orderNumber</text>
   <rect width="133" height="20" x="405" y="343" style="fill:none;stroke:black;"/>
   <text width="133" height="20" x="410" y="357" style="fill:black;" font-family="Arial" font-size="16px">orderDate</text>
   <rect width="133" height="20" x="405" y="363" style="fill:none;stroke:black;"/>
   <text width="133" height="20" x="410" y="377" style="fill:black;" font-family="Arial" font-size="16px">requiredDate</text>
   <rect width="133" height="20" x="405" y="383" style="fill:none;stroke:black;"/>
   <text width="133" height="20" x="410" y="397" style="fill:black;" font-family="Arial" font-size="16px">shippedDate</text>
   <rect width="133" height="20" x="405" y="403" style="fill:none;stroke:black;"/>
   <text width="133" height="20" x="410" y="417" style="fill:black;" font-family="Arial" font-size="16px">status</text>
   <rect width="133" height="20" x="405" y="423" style="fill:none;stroke:black;"/>
   <text width="133" height="20" x="410" y="437" style="fill:black;" font-family="Arial" font-size="16px">comments</text>
   <rect width="133" height="20" x="405" y="443" style="fill:none;stroke:black;"/>
   <text width="133" height="20" x="410" y="457" style="fill:black;" font-family="Arial" font-size="16px">customerNumber</text>
   <rect width="133" height="20" x="422" y="174" style="fill:#007;stroke:black;"/>
   <text width="133" height="20" x="427" y="188" style="fill:#fff;" font-family="Arial" font-size="16px"> payments</text>
   <rect width="133" height="20" x="422" y="194" style="fill:#aea;stroke:black;"/>
   <text width="133" height="20" x="427" y="208" style="fill:black;" font-family="Arial" font-size="16px">customerNumber</text>
   <rect width="133" height="20" x="422" y="214" style="fill:none;stroke:black;"/>
   <text width="133" height="20" x="427" y="228" style="fill:black;" font-family="Arial" font-size="16px">checkNumber</text>
   <rect width="133" height="20" x="422" y="234" style="fill:none;stroke:black;"/>
   <text width="133" height="20" x="427" y="248" style="fill:black;" font-family="Arial" font-size="16px">paymentDate</text>
   <rect width="133" height="20" x="422" y="254" style="fill:none;stroke:black;"/>
   <text width="133" height="20" x="427" y="268" style="fill:black;" font-family="Arial" font-size="16px">amount</text>
   <rect width="121" height="20" x="632" y="47" style="fill:#007;stroke:black;"/>
   <text width="121" height="20" x="637" y="61" style="fill:#fff;" font-family="Arial" font-size="16px"> productlines</text>
   <rect width="121" height="20" x="632" y="67" style="fill:none;stroke:black;"/>
   <text width="121" height="20" x="637" y="81" style="fill:black;" font-family="Arial" font-size="16px">productLine</text>
   <rect width="121" height="20" x="632" y="87" style="fill:none;stroke:black;"/>
   <text width="121" height="20" x="637" y="101" style="fill:black;" font-family="Arial" font-size="16px">textDescription</text>
   <rect width="121" height="20" x="632" y="107" style="fill:none;stroke:black;"/>
   <text width="121" height="20" x="637" y="121" style="fill:black;" font-family="Arial" font-size="16px">htmlDescription</text>
   <rect width="121" height="20" x="632" y="127" style="fill:none;stroke:black;"/>
   <text width="121" height="20" x="637" y="141" style="fill:black;" font-family="Arial" font-size="16px">image</text>
   <rect width="144" height="20" x="939" y="120" style="fill:#007;stroke:black;"/>
   <text width="144" height="20" x="944" y="134" style="fill:#fff;" font-family="Arial" font-size="16px"> products</text>
   <rect width="144" height="20" x="939" y="140" style="fill:none;stroke:black;"/>
   <text width="144" height="20" x="944" y="154" style="fill:black;" font-family="Arial" font-size="16px">productCode</text>
   <rect width="144" height="20" x="939" y="160" style="fill:none;stroke:black;"/>
   <text width="144" height="20" x="944" y="174" style="fill:black;" font-family="Arial" font-size="16px">productName</text>
   <rect width="144" height="20" x="939" y="180" style="fill:none;stroke:black;"/>
   <text width="144" height="20" x="944" y="194" style="fill:black;" font-family="Arial" font-size="16px">productLine</text>
   <rect width="144" height="20" x="939" y="200" style="fill:none;stroke:black;"/>
   <text width="144" height="20" x="944" y="214" style="fill:black;" font-family="Arial" font-size="16px">productScale</text>
   <rect width="144" height="20" x="939" y="220" style="fill:none;stroke:black;"/>
   <text width="144" height="20" x="944" y="234" style="fill:black;" font-family="Arial" font-size="16px">productVendor</text>
   <rect width="144" height="20" x="939" y="240" style="fill:none;stroke:black;"/>
   <text width="144" height="20" x="944" y="254" style="fill:black;" font-family="Arial" font-size="16px">productDescription</text>
   <rect width="144" height="20" x="939" y="260" style="fill:none;stroke:black;"/>
   <text width="144" height="20" x="944" y="274" style="fill:black;" font-family="Arial" font-size="16px">quantityInStock</text>
   <rect width="144" height="20" x="939" y="280" style="fill:none;stroke:black;"/>
   <text width="144" height="20" x="944" y="294" style="fill:black;" font-family="Arial" font-size="16px">buyPrice</text>
   <rect width="144" height="20" x="939" y="300" style="fill:none;stroke:black;"/>
   <text width="144" height="20" x="944" y="314" style="fill:black;" font-family="Arial" font-size="16px">MSRP</text>
</svg>
